# xmcd
#
# Track frame offsets: 
#        150
#        14215
#        29840
#        51754
#        67904
#        79809
#        91207
#        105669
#        123224
#
# Disc length: 1951 seconds
#
# Revision: 0
# Processed by: cddbd v1.5.2PL0 Copyright (c) Steve Scherf et al.
# Submitted via: ExactAudioCopy v0.99pb4
#
DISCID=73079d09
DTITLE=Canned Heat - One more river to cross
DYEAR=1974
DGENRE=Blues
TTITLE0=One more River to cross
TTITLE1=L.A. Town
TTITLE2=I need someone
TTITLE3=Bagful of boogie
TTITLE4=I'm a hog for you baby
TTITLE5=Shake, rattle and roll
TTITLE6=Bright times are comin'
TTITLE7=Highway 401
TTITLE8=We remember Fats
EXTD=
EXTT0=
EXTT1=
EXTT2=
EXTT3=
EXTT4=
EXTT5=
EXTT6=
EXTT7=
EXTT8=
PLAYORDER=
